<svg width="100" height="89" viewBox="0 0 100 89" fill="none" xmlns="http://www.w3.org/2000/svg">
<path d="M34.3104 0.874905C33.753 0.312774 33.0046 -0.00805972 32.2021 0.000312456C31.4106 0.00300351 30.6532 0.32294 30.0998 0.88866C28.8708 2.14478 0 31.9312 0 56.5932C0 74.3548 14.4504 88.8051 32.2119 88.8051C49.9735 88.8051 64.4239 74.3548 64.4239 56.5932C64.4239 31.5299 35.5402 2.11458 34.3104 0.874905ZM32.2119 82.8947C17.7089 82.8947 5.91045 71.0959 5.91045 56.5932C5.91045 37.9538 25.6502 14.5577 32.2245 7.2835C38.8089 14.4916 58.5137 37.6506 58.5137 56.5932C58.5134 71.0959 46.7149 82.8947 32.2119 82.8947Z" fill="#52D047"/>
<path d="M22.6626 47.1087C22.0918 47.1087 21.5996 47.3201 21.2399 47.7199C20.891 48.1074 20.714 48.66 20.714 49.362V52.6496H15.9762V49.362C15.9762 48.6504 15.7938 48.0937 15.4338 47.7073C15.0681 47.3156 14.5724 47.1087 13.9998 47.1087C13.4137 47.1087 12.9168 47.3219 12.5627 47.7256C12.2234 48.1122 12.0511 48.663 12.0511 49.3623V60.0288C12.0511 60.7288 12.2252 61.2813 12.5678 61.6703C12.9251 62.0767 13.4203 62.2914 13.9998 62.2914C14.5667 62.2914 15.0609 62.0827 15.4293 61.688C15.792 61.2993 15.9762 60.741 15.9762 60.0288V56.067H20.714V60.0288C20.714 60.7288 20.888 61.2813 21.2306 61.6703C21.5879 62.0767 22.0831 62.2914 22.6626 62.2914C23.2295 62.2914 23.7237 62.0827 24.0921 61.688C24.4548 61.2993 24.639 60.741 24.639 60.0288V49.3623C24.639 48.6507 24.4566 48.094 24.0966 47.7076C23.7309 47.3156 23.2352 47.1087 22.6626 47.1087Z" fill="#52D047"/>
<path d="M34.9766 67.3407C34.6913 67.1182 34.3065 67.0052 33.832 67.0052H31.7201C31.907 66.835 32.1477 66.6269 32.4571 66.374C33.1299 65.8241 33.5969 65.4309 33.8855 65.1717C34.2072 64.8828 34.5215 64.487 34.8199 63.9948C35.1443 63.4596 35.3088 62.8586 35.3088 62.2088C35.3088 61.7896 35.2295 61.3788 35.0725 60.9883C34.9165 60.5987 34.694 60.25 34.412 59.9522C34.1295 59.6535 33.7964 59.4149 33.4154 59.2406C32.8692 58.9978 32.2119 58.8749 31.4629 58.8749C30.835 58.8749 30.2726 58.9718 29.7918 59.1626C29.3059 59.3554 28.8948 59.6164 28.5694 59.9385C28.2459 60.2596 27.998 60.625 27.8327 61.0248C27.6679 61.4233 27.5845 61.8171 27.5845 62.1957C27.5845 62.7076 27.7965 63.0269 27.9744 63.2039C28.2292 63.4587 28.562 63.5935 28.9369 63.5935C29.4769 63.5935 29.7921 63.3477 29.9616 63.1408C30.1359 62.9279 30.2825 62.6484 30.4101 62.286C30.5241 61.9604 30.5677 61.8754 30.5671 61.8754H30.5668C30.7863 61.5394 31.0506 61.3893 31.4238 61.3893C31.5984 61.3893 31.753 61.4266 31.8965 61.5032C32.0319 61.5752 32.1357 61.6733 32.2137 61.8022C32.2915 61.9308 32.3289 62.0764 32.3289 62.248C32.3289 62.4208 32.2855 62.5984 32.1967 62.7904C32.0989 63.0018 31.9506 63.2147 31.756 63.4234C31.5455 63.6491 31.2749 63.8797 30.9621 64.1009C30.7331 64.2552 30.3817 64.5515 29.8887 65.0057C29.4129 65.4432 28.8744 65.9736 28.2839 66.5872C28.0973 66.7851 27.9353 67.0387 27.7887 67.3619C27.6342 67.7034 27.5588 67.988 27.5588 68.2329C27.5588 68.6351 27.7149 69.0013 28.01 69.2926C28.3072 69.5868 28.7055 69.736 29.1932 69.736H34.0227C34.4778 69.736 34.839 69.5994 35.0959 69.3305C35.3428 69.0728 35.4732 68.743 35.4732 68.3773C35.4726 67.9521 35.3007 67.5939 34.9766 67.3407Z" fill="#52D047"/>
<path d="M50.6029 50.7216C50.0351 49.5687 49.1853 48.6663 48.0781 48.0395C46.9864 47.4218 45.6717 47.1087 44.1716 47.1087C43.0668 47.1087 42.0615 47.286 41.1827 47.6353C40.2914 47.9896 39.5232 48.5099 38.8995 49.1814C38.2788 49.8488 37.8001 50.6654 37.4759 51.6079C37.1575 52.5336 36.996 53.5613 36.996 54.6628C36.996 55.7366 37.1503 56.7523 37.455 57.6819C37.766 58.6315 38.2342 59.458 38.8472 60.1379C39.4649 60.8232 40.2429 61.3606 41.1594 61.7346C42.0639 62.1036 43.0961 62.2911 44.2272 62.2911C45.3634 62.2911 46.3914 62.109 47.2833 61.7493C48.1884 61.3845 48.9638 60.8487 49.5884 60.1562C50.207 59.4699 50.6771 58.6507 50.985 57.7205C51.287 56.8085 51.4398 55.7859 51.4398 54.6814C51.4395 53.1807 51.1582 51.8486 50.6029 50.7216ZM47.0127 57.115C46.7131 57.7456 46.3295 58.1944 45.84 58.4865C45.3404 58.7846 44.8067 58.9296 44.2081 58.9296C43.7455 58.9296 43.3179 58.8441 42.9373 58.6755C42.5608 58.5089 42.2206 58.2515 41.926 57.9103C41.627 57.5653 41.3902 57.1156 41.2213 56.5741C41.0461 56.0125 40.9573 55.3694 40.9573 54.6631C40.9573 53.9637 41.0458 53.3296 41.2204 52.7773C41.3899 52.243 41.6187 51.804 41.9012 51.4721C42.1811 51.1435 42.5049 50.9004 42.8915 50.7288C43.2787 50.5575 43.7093 50.4702 44.1713 50.4702C44.8333 50.4702 45.3999 50.6235 45.9028 50.9384C46.3989 51.2494 46.7732 51.7033 47.0474 52.3243C47.333 52.9725 47.4774 53.7592 47.4774 54.6628C47.4774 55.6406 47.321 56.4658 47.0127 57.115Z" fill="#52D047"/>
<path fill-rule="evenodd" clip-rule="evenodd" d="M77.7987 38.4822C86.7904 38.4822 94.0797 31.193 94.0797 22.2013C94.0797 13.2096 86.7904 5.92034 77.7987 5.92034C68.807 5.92034 61.5178 13.2096 61.5178 22.2013C61.5178 31.193 68.807 38.4822 77.7987 38.4822ZM77.7987 44.4026C90.0602 44.4026 100 34.4627 100 22.2013C100 9.93985 90.0602 0 77.7987 0C65.5373 0 55.5974 9.93985 55.5974 22.2013C55.5974 34.4627 65.5373 44.4026 77.7987 44.4026Z" fill="#52D047"/>
<path fill-rule="evenodd" clip-rule="evenodd" d="M69.5103 22.4973C69.5103 21.6799 70.1729 21.0172 70.9903 21.0172H85.7912C86.6086 21.0172 87.2713 21.6799 87.2713 22.4973C87.2713 23.3147 86.6086 23.9774 85.7912 23.9774H70.9903C70.1729 23.9774 69.5103 23.3147 69.5103 22.4973Z" fill="#52D047"/>
<path fill-rule="evenodd" clip-rule="evenodd" d="M78.0947 13.6168C78.9122 13.6168 79.5748 14.2794 79.5748 15.0969L79.5748 29.8977C79.5748 30.7152 78.9122 31.3778 78.0947 31.3778C77.2773 31.3778 76.6147 30.7152 76.6147 29.8977L76.6147 15.0969C76.6147 14.2794 77.2773 13.6168 78.0947 13.6168Z" fill="#52D047"/>
</svg>
