<svg width="100" height="100" viewBox="0 0 100 100" fill="none" xmlns="http://www.w3.org/2000/svg">
<path d="M60.4166 54.1666H89.5832C90.7332 54.1666 91.6666 53.2332 91.6666 52.0832C91.6666 50.9332 90.7334 50 89.5834 50H60.4166C59.2666 50 58.3332 50.9334 58.3332 52.0834C58.3332 53.2334 59.2666 54.1666 60.4166 54.1666Z" fill="black"/>
<path d="M60.4166 41.6666H89.5832C90.7332 41.6666 91.6666 40.7332 91.6666 39.5832C91.6666 38.4332 90.7334 37.5 89.5834 37.5H60.4166C59.2666 37.5 58.3332 38.4334 58.3332 39.5834C58.3332 40.7334 59.2666 41.6666 60.4166 41.6666Z" fill="black"/>
<path d="M60.4166 66.6666H89.5832C90.7332 66.6666 91.6666 65.7332 91.6666 64.5832C91.6666 63.4332 90.7334 62.5 89.5834 62.5H60.4166C59.2666 62.5 58.3332 63.4334 58.3332 64.5834C58.3332 65.7334 59.2666 66.6666 60.4166 66.6666Z" fill="black"/>
<path d="M60.4166 79.1666H77.0832C78.2332 79.1666 79.1666 78.2332 79.1666 77.0832C79.1666 75.9332 78.2334 75 77.0834 75H60.4168C59.2668 75 58.3334 75.9334 58.3334 77.0834C58.3334 78.2334 59.2666 79.1666 60.4166 79.1666Z" fill="black"/>
<path d="M27.0834 12.5C25.9334 12.5 25 13.4334 25 14.5834C25 15.7334 25.9334 16.6668 27.0834 16.6668C28.2334 16.6668 29.1668 15.7334 29.1668 14.5834C29.1668 13.4334 28.2334 12.5 27.0834 12.5Z" fill="black"/>
<path d="M89.5834 4.1666H10.4166C4.6709 4.1666 0 8.84159 0 14.5834V85.4168C0 91.1584 4.6709 95.8334 10.4166 95.8334H89.5832C95.3291 95.8334 99.9998 91.1584 99.9998 85.4168V14.5834C100 8.84159 95.3291 4.1666 89.5834 4.1666ZM95.8334 85.4166C95.8334 88.8625 93.0293 91.6666 89.5834 91.6666H10.4166C6.9707 91.6666 4.1666 88.8625 4.1666 85.4166V25H95.8332V85.4166H95.8334ZM95.8334 20.8334H4.1666V14.5834C4.1666 11.1375 6.9707 8.33339 10.4166 8.33339H89.5832C93.0291 8.33339 95.8332 11.1375 95.8332 14.5834V20.8334H95.8334Z" fill="black"/>
<path d="M10.4166 12.5C9.2666 12.5 8.33321 13.4334 8.33321 14.5834C8.33321 15.7334 9.2666 16.6668 10.4166 16.6668C11.5666 16.6668 12.5 15.7334 12.5 14.5834C12.5 13.4334 11.5666 12.5 10.4166 12.5Z" fill="black"/>
<path d="M10.4166 79.1666L52.0832 79.1625C53.2332 79.1625 54.1666 78.2291 54.1666 77.0791C54.1666 71.8582 50.625 67.325 45.5707 66.0582L39.3166 64.4957L39.0541 63.4498C40.675 61.6582 41.8291 59.3707 42.3082 56.9957C43.4207 56.4207 44.2248 55.3291 44.3916 54.0166L44.8416 50.3916C44.9791 49.2916 44.6416 48.1832 43.9125 47.35C43.6875 47.0959 43.4291 46.8709 43.1541 46.6834L43.2582 44.4709L43.6373 44.0918C44.7123 42.9502 46.1664 40.5127 43.8664 36.9959C42.7748 35.325 40.5248 33.3334 36.0164 33.3334C34.6873 33.3334 31.6914 33.3334 28.783 35.1543C20.208 35.4584 19.1996 40.0793 19.1996 43.5668C19.1996 44.2543 19.3246 45.5418 19.4412 46.6168C19.1328 46.8127 18.8496 47.0543 18.6037 47.3334C17.8621 48.175 17.5203 49.2875 17.6621 50.3918L18.1121 54.0168C18.283 55.3752 19.1455 56.5002 20.4162 57.0543C20.8828 59.3252 21.9746 61.5252 23.4953 63.2709L23.1912 64.4959L16.9371 66.0584C11.8746 67.325 8.33301 71.8584 8.33301 77.0834C8.33301 77.6375 8.54961 78.1709 8.94141 78.5584C9.3334 78.9459 9.8625 79.1666 10.4166 79.1666ZM17.9541 70.0959L25.4207 68.2293C26.1666 68.0418 26.7498 67.4584 26.9373 66.7127L27.8248 63.1586C28.0082 62.4252 27.7789 61.6502 27.2248 61.1336C25.6039 59.6086 24.5289 57.3795 24.3539 55.1711C24.2664 54.092 23.3414 53.492 22.2539 53.492L21.7164 50.1754C22.3164 50.1754 22.883 49.9213 23.2789 49.4713C23.6748 49.0254 23.858 48.4297 23.783 47.8338C23.6246 46.5754 23.3705 44.3004 23.3705 43.5672C23.3705 41.4088 23.3705 39.3713 29.4621 39.3088C29.8871 39.3047 30.3037 39.1713 30.6537 38.9213C32.6375 37.5 34.9209 37.5 36.0166 37.5C38.1666 37.5 39.5957 38.0791 40.3791 39.275C41.225 40.5709 40.8791 40.9375 40.6457 41.1916L39.7416 42.0957C39.375 42.4623 39.1582 42.9498 39.1332 43.4666L38.9123 48C38.8873 48.5666 38.9539 48.9625 39.3414 49.375C39.733 49.7875 40.133 49.8709 40.6998 49.875L40.4332 53.2625C39.3457 53.2625 38.4457 54.0959 38.3582 55.1791C38.1748 57.425 37.0207 59.7541 35.3457 61.2582C34.7748 61.7707 34.5291 62.5623 34.7166 63.3123L35.5666 66.7164C35.7541 67.4623 36.3332 68.0498 37.0832 68.233L44.5541 70.0996C47.0625 70.7287 48.9791 72.6205 49.6957 74.9996L12.8041 74.9955C13.5209 72.6209 15.4416 70.7291 17.9541 70.0959Z" fill="black"/>
<path d="M18.75 12.5C17.6 12.5 16.6666 13.4334 16.6666 14.5834C16.6666 15.7334 17.6 16.6666 18.75 16.6666C19.9 16.6666 20.8334 15.7332 20.8334 14.5832C20.8334 13.4332 19.9 12.5 18.75 12.5Z" fill="black"/>
</svg>
