<svg width="100" height="100" viewBox="0 0 100 100" fill="none" xmlns="http://www.w3.org/2000/svg">
<path d="M66.9317 50L96.4915 20.4426C101.169 15.7654 101.169 8.18326 96.4915 3.50848C91.8191 -1.1663 84.2322 -1.1663 79.5598 3.50848L50 33.0707L20.4402 3.50848C15.7678 -1.1663 8.18086 -1.1663 3.50847 3.50848C-1.1687 8.18565 -1.1687 15.7678 3.50847 20.4426L33.0659 50L3.50847 79.5574C-1.1687 84.2346 -1.1687 91.8167 3.50847 96.4915C5.84347 98.8313 8.91129 99.9976 11.9743 99.9976C15.035 99.9976 18.1052 98.8313 20.4402 96.4915L50 66.9341L79.5598 96.4939C81.8972 98.8337 84.9626 100 88.0257 100C91.0887 100 94.1565 98.8337 96.4915 96.4939C101.169 91.8167 101.169 84.2346 96.4915 79.5598L66.9317 50Z" fill="#FFBF00"/>
</svg>
