<svg width="100" height="90" viewBox="0 0 100 90" fill="none" xmlns="http://www.w3.org/2000/svg">
<path d="M50.5991 44.1084H75.0262C75.9893 44.1084 76.771 43.3267 76.771 42.3636C76.771 41.4004 75.9895 40.6189 75.0264 40.6189H50.5991C49.6359 40.6189 48.8542 41.4006 48.8542 42.3637C48.8542 43.3269 49.6359 44.1084 50.5991 44.1084Z" fill="#F91717"/>
<path d="M8.72392 75.5148H43.6198C44.5829 75.5148 45.3647 74.7296 45.3647 73.7665C45.3647 69.394 42.3986 65.5974 38.1587 64.5365L32.9209 63.2279L32.701 62.3519C34.062 60.8515 35.0251 58.9357 35.4264 56.9466C36.3581 56.465 37.0315 55.5508 37.1712 54.4516L37.5481 51.4156C37.6632 50.4944 37.3806 49.5661 36.77 48.8683C36.5815 48.6519 36.3687 48.467 36.1348 48.3064L36.222 46.4534L36.5395 46.1359C37.4398 45.1798 38.6542 43.1384 36.7314 40.1931C35.824 38.7973 33.9396 37.1292 30.164 37.1292C29.0543 37.1292 26.5452 37.1292 24.1096 38.6576C16.928 38.9089 16.0835 42.7789 16.0835 45.7031C16.0835 46.2789 16.1847 47.3572 16.2858 48.2575C16.0275 48.4216 15.7868 48.6239 15.5844 48.8577C14.9633 49.5625 14.6771 50.4942 14.7958 51.4191L15.1727 54.455C15.3158 55.5927 16.0382 56.5349 17.1024 56.9989C17.4932 58.9008 18.4075 60.7433 19.6811 62.2054L19.4265 63.2313L14.1886 64.5399C9.94533 65.5972 6.97906 69.394 6.97906 73.7699C6.97923 74.7332 7.76079 75.5148 8.72392 75.5148Z" fill="#F91717"/>
<path fill-rule="evenodd" clip-rule="evenodd" d="M59.8956 12.7021H8.72393C3.91189 12.7021 0 16.6174 0 21.4262V80.7493C0 85.558 3.91189 89.4733 8.72393 89.4733H75.0262C79.8384 89.4733 83.7501 85.558 83.7501 80.7493V40.1665C83.3343 40.1888 82.9155 40.2001 82.494 40.2001C81.7406 40.2001 80.9955 40.164 80.2606 40.0932L80.2608 80.7492C80.2608 83.6351 77.9123 85.9836 75.0264 85.9836H8.72393C5.83798 85.9836 3.48954 83.6351 3.48954 80.7492V30.1501H63.4669C60.9404 26.4539 59.4627 21.9839 59.4627 17.1688C59.4627 15.6406 59.6116 14.1471 59.8956 12.7021ZM24.4273 21.4262C24.4273 20.463 23.6456 19.6813 22.6824 19.6813C21.7193 19.6813 20.9376 20.463 20.9376 21.4262C20.9376 22.3893 21.7193 23.171 22.6824 23.171C23.6456 23.171 24.4273 22.3893 24.4273 21.4262ZM17.448 21.4262C17.448 20.463 16.6663 19.6813 15.7032 19.6813C14.7401 19.6813 13.9583 20.4629 13.9583 21.426C13.9583 22.3891 14.7401 23.1709 15.7032 23.1709C16.6663 23.1709 17.448 22.3893 17.448 21.4262ZM10.4688 21.4262C10.4688 20.463 9.68706 19.6813 8.72393 19.6813C7.76081 19.6813 6.97908 20.463 6.97908 21.4262C6.97908 22.3893 7.76081 23.171 8.72393 23.171C9.68706 23.171 10.4688 22.3893 10.4688 21.4262Z" fill="#F91717"/>
<path d="M50.5991 75.5148H64.5574C65.5205 75.5148 66.3022 74.7331 66.3022 73.7699C66.3022 72.8068 65.5207 72.0252 64.5576 72.0252H50.5992C49.6361 72.0252 48.8544 72.807 48.8544 73.7701C48.8544 74.7332 49.6359 75.5148 50.5991 75.5148Z" fill="#F91717"/>
<path d="M50.5991 54.5772H75.0262C75.9893 54.5772 76.771 53.7955 76.771 52.8323C76.771 51.8692 75.9895 51.0877 75.0264 51.0877H50.5991C49.6359 51.0877 48.8542 51.8694 48.8542 52.8325C48.8542 53.7956 49.6359 54.5772 50.5991 54.5772Z" fill="#F91717"/>
<path d="M50.5991 65.046H75.0262C75.9893 65.046 76.771 64.2643 76.771 63.3011C76.771 62.338 75.9895 61.5564 75.0264 61.5564H50.5991C49.6359 61.5564 48.8542 62.3382 48.8542 63.3013C48.8542 64.2644 49.6359 65.046 50.5991 65.046Z" fill="#F91717"/>
<path fill-rule="evenodd" clip-rule="evenodd" d="M81.4064 32.229C88.9369 32.229 95.0417 26.1242 95.0417 18.5936C95.0417 11.0631 88.9369 4.9583 81.4064 4.9583C73.8758 4.9583 67.771 11.0631 67.771 18.5936C67.771 26.1242 73.8758 32.229 81.4064 32.229ZM81.4064 37.1873C91.6753 37.1873 100 28.8626 100 18.5936C100 8.32466 91.6753 0 81.4064 0C71.1374 0 62.8127 8.32466 62.8127 18.5936C62.8127 28.8626 71.1374 37.1873 81.4064 37.1873Z" fill="#F91717"/>
<path fill-rule="evenodd" clip-rule="evenodd" d="M74.4648 18.8416C74.4648 18.157 75.0197 17.602 75.7043 17.602H88.1001C88.7847 17.602 89.3397 18.157 89.3397 18.8416C89.3397 19.5262 88.7847 20.0811 88.1001 20.0811H75.7043C75.0197 20.0811 74.4648 19.5262 74.4648 18.8416Z" fill="#F91717"/>
</svg>
