<svg width="101" height="89" viewBox="0 0 101 89" fill="none" xmlns="http://www.w3.org/2000/svg">
<path d="M34.492 0.87489C33.9347 0.312759 33.1863 -0.00807497 32.3837 0.000297197C31.5923 0.00298825 30.8349 0.322925 30.2814 0.888644C29.0525 2.14477 0.181671 31.9312 0.181671 56.5932C0.181671 74.3548 14.632 88.8051 32.3936 88.8051C50.1552 88.8051 64.6055 74.3548 64.6055 56.5932C64.6055 31.5299 35.7218 2.11457 34.492 0.87489ZM32.3936 82.8947C17.8906 82.8947 6.09212 71.0959 6.09212 56.5932C6.09212 37.9537 25.8319 14.5577 32.4062 7.28349C38.9906 14.4916 58.6954 37.6506 58.6954 56.5932C58.6951 71.0959 46.8966 82.8947 32.3936 82.8947Z" fill="black"/>
<path d="M22.8442 47.1087C22.2734 47.1087 21.7813 47.3201 21.4216 47.7199C21.0726 48.1074 20.8956 48.66 20.8956 49.362V52.6496H16.1579V49.362C16.1579 48.6504 15.9755 48.0937 15.6155 47.7073C15.2498 47.3156 14.754 47.1087 14.1814 47.1087C13.5954 47.1087 13.0984 47.3219 12.7444 47.7256C12.405 48.1122 12.2328 48.663 12.2328 49.3623V60.0288C12.2328 60.7288 12.4068 61.2813 12.7495 61.6703C13.1068 62.0767 13.602 62.2914 14.1814 62.2914C14.7484 62.2914 15.2426 62.0827 15.611 61.688C15.9737 61.2993 16.1579 60.741 16.1579 60.0288V56.067H20.8956V60.0288C20.8956 60.7288 21.0696 61.2813 21.4123 61.6703C21.7696 62.0767 22.2648 62.2914 22.8442 62.2914C23.4112 62.2914 23.9054 62.0827 24.2738 61.688C24.6365 61.2993 24.8207 60.741 24.8207 60.0288V49.3623C24.8207 48.6507 24.6383 48.094 24.2783 47.7076C23.9126 47.3156 23.4168 47.1087 22.8442 47.1087Z" fill="black"/>
<path d="M35.1582 67.3407C34.873 67.1182 34.4881 67.0052 34.0136 67.0052H31.9017C32.0886 66.835 32.3293 66.6269 32.6388 66.374C33.3116 65.8241 33.7786 65.4309 34.0671 65.1717C34.3889 64.8828 34.7031 64.487 35.0015 63.9948C35.326 63.4596 35.4904 62.8586 35.4904 62.2088C35.4904 61.7896 35.4112 61.3788 35.2542 60.9883C35.0981 60.5987 34.8757 60.25 34.5937 59.9522C34.3111 59.6535 33.978 59.4149 33.5971 59.2406C33.0508 58.9978 32.3936 58.8749 31.6446 58.8749C31.0167 58.8749 30.4542 58.9718 29.9734 59.1626C29.4876 59.3554 29.0764 59.6164 28.7511 59.9385C28.4276 60.2596 28.1797 60.625 28.0144 61.0248C27.8496 61.4233 27.7662 61.8171 27.7662 62.1957C27.7662 62.7076 27.9782 63.0269 28.1561 63.2039C28.4108 63.4587 28.7436 63.5935 29.1186 63.5935C29.6586 63.5935 29.9737 63.3477 30.1433 63.1408C30.3176 62.9279 30.4641 62.6484 30.5918 62.286C30.7057 61.9604 30.7494 61.8754 30.7488 61.8754H30.7485C30.9679 61.5394 31.2323 61.3893 31.6054 61.3893C31.78 61.3893 31.9346 61.4266 32.0781 61.5032C32.2136 61.5752 32.3174 61.6733 32.3954 61.8022C32.4731 61.9308 32.5105 62.0764 32.5105 62.248C32.5105 62.4208 32.4672 62.5984 32.3784 62.7904C32.2806 63.0018 32.1323 63.2147 31.9376 63.4234C31.7271 63.6491 31.4565 63.8797 31.1438 64.1009C30.9147 64.2552 30.5634 64.5515 30.0703 65.0057C29.5946 65.4432 29.0561 65.9736 28.4656 66.5872C28.279 66.7851 28.1169 67.0387 27.9704 67.3619C27.8158 67.7034 27.7405 67.988 27.7405 68.2329C27.7405 68.6351 27.8965 69.0013 28.1917 69.2926C28.4889 69.5868 28.8872 69.736 29.3748 69.736H34.2044C34.6595 69.736 35.0207 69.5994 35.2775 69.3306C35.5245 69.0728 35.6549 68.743 35.6549 68.3773C35.6543 67.9521 35.4823 67.5939 35.1582 67.3407Z" fill="black"/>
<path d="M50.7846 50.7216C50.2168 49.5687 49.367 48.6663 48.2598 48.0395C47.1681 47.4218 45.8534 47.1087 44.3533 47.1087C43.2484 47.1087 42.2432 47.286 41.3644 47.6353C40.473 47.9896 39.7049 48.5099 39.0812 49.1814C38.4604 49.8488 37.9817 50.6654 37.6576 51.6079C37.3392 52.5336 37.1777 53.5613 37.1777 54.6628C37.1777 55.7366 37.332 56.7523 37.6367 57.6819C37.9476 58.6315 38.4159 59.458 39.0288 60.1379C39.6466 60.8232 40.4246 61.3606 41.3411 61.7346C42.2456 62.1036 43.2777 62.2911 44.4089 62.2911C45.5451 62.2911 46.5731 62.109 47.465 61.7493C48.3701 61.3845 49.1454 60.8487 49.77 60.1562C50.3887 59.4699 50.8587 58.6507 51.1667 57.7205C51.4687 56.8085 51.6215 55.7859 51.6215 54.6814C51.6212 53.1806 51.3398 51.8486 50.7846 50.7216ZM47.1944 57.115C46.8948 57.7456 46.5112 58.1944 46.0217 58.4865C45.5221 58.7846 44.9883 58.9296 44.3897 58.9296C43.9272 58.9296 43.4996 58.8441 43.119 58.6755C42.7425 58.5089 42.4022 58.2515 42.1077 57.9103C41.8087 57.5653 41.5719 57.1156 41.403 56.5741C41.2277 56.0125 41.1389 55.3694 41.1389 54.6631C41.1389 53.9637 41.2274 53.3296 41.4021 52.7773C41.5716 52.243 41.8003 51.804 42.0829 51.4721C42.3628 51.1435 42.6866 50.9004 43.0732 50.7288C43.4604 50.5575 43.891 50.4702 44.353 50.4702C45.015 50.4702 45.5816 50.6235 46.0845 50.9384C46.5805 51.2494 46.9549 51.7033 47.2291 52.3243C47.5146 52.9725 47.6591 53.7592 47.6591 54.6628C47.6591 55.6406 47.5027 56.4658 47.1944 57.115Z" fill="black"/>
<path fill-rule="evenodd" clip-rule="evenodd" d="M77.9804 38.4822C86.9721 38.4822 94.2613 31.193 94.2613 22.2013C94.2613 13.2096 86.9721 5.92034 77.9804 5.92034C68.9887 5.92034 61.6995 13.2096 61.6995 22.2013C61.6995 31.193 68.9887 38.4822 77.9804 38.4822ZM77.9804 44.4026C90.2418 44.4026 100.182 34.4627 100.182 22.2013C100.182 9.93985 90.2418 0 77.9804 0C65.719 0 55.7791 9.93985 55.7791 22.2013C55.7791 34.4627 65.719 44.4026 77.9804 44.4026Z" fill="black"/>
<path fill-rule="evenodd" clip-rule="evenodd" d="M69.6919 22.4973C69.6919 21.6799 70.3546 21.0172 71.172 21.0172H85.9728C86.7903 21.0172 87.4529 21.6799 87.4529 22.4973C87.4529 23.3147 86.7903 23.9774 85.9728 23.9774H71.172C70.3546 23.9774 69.6919 23.3147 69.6919 22.4973Z" fill="black"/>
</svg>
