<svg width="100" height="100" viewBox="0 0 100 100" fill="none" xmlns="http://www.w3.org/2000/svg">
<path d="M72.0797 75.4211C70.8702 75.4211 69.7436 75.8773 68.9902 76.677C68.2616 77.4497 67.9106 78.4818 67.9805 79.6571C68.2109 83.6325 68.27 87.5779 68.2853 91.2928C63.0033 91.3702 56.883 91.4111 50.503 91.4111C38.5471 91.4123 27.653 91.2701 19.649 91.0131C19.5818 75.0358 19.1969 58.8222 18.8246 43.132C18.5605 31.973 18.2861 20.445 18.1284 9.08549C24.4143 8.74153 32.7069 8.58089 44.0762 8.58089C49.6943 8.58089 55.2496 8.61967 60.2421 8.65464C62.2092 8.66905 64.0905 8.68092 65.8542 8.69236C65.9695 11.1626 66.1653 13.617 66.3881 16.296C66.3957 16.3853 66.4097 16.4688 66.429 16.5715C66.4 16.7701 66.3849 16.9681 66.3849 17.1645V19.7124C66.3849 22.0762 68.308 23.9987 70.6723 23.9987C73.0366 23.9987 74.9596 22.0762 74.9596 19.7124V17.1641C74.9596 17.0969 74.9552 17.0306 74.9467 16.9666C74.9757 16.6826 74.9789 16.4037 74.9552 16.117C74.6562 12.5237 74.3461 8.80765 74.3226 5.05287C74.3162 4.09451 74.0244 3.21902 73.4797 2.51202C72.8049 1.02405 71.4113 0.140087 69.7196 0.135848C66.4697 0.129278 62.8796 0.104058 59.0892 0.0750237C54.1194 0.0387834 48.8048 0 43.4578 0C30.3218 0 20.8687 0.247112 13.7077 0.776092C12.2651 0.883118 11.0683 1.60051 10.3291 2.80025C9.77596 3.51764 9.48922 4.41241 9.50151 5.39132C9.64689 18.0423 9.95568 30.8983 10.2543 43.3325C10.6574 60.1243 11.0738 77.4874 11.0948 94.5642C11.0976 96.3012 12.0053 97.7044 13.5394 98.3654C14.2744 99.0586 15.222 99.4447 16.2954 99.4846C25.021 99.8171 37.0252 100 50.095 100C57.9861 100 65.9812 99.9324 72.6061 99.8052C74.4519 99.7709 75.9455 98.6795 76.5214 96.9535C76.7549 96.4207 76.8721 95.8298 76.8721 95.1993C76.871 89.6194 76.8475 84.5881 76.5525 79.5281C76.3931 76.8308 74.1827 75.4211 72.0797 75.4211Z" fill="#FFBF00"/>
<path d="M86.1253 30.2382H61.1513C61.1191 26.7163 61.0146 23.1989 60.652 19.6888C60.6327 19.4892 60.582 19.3116 60.539 19.1287C60.3701 16.1369 56.6098 13.6153 54.0637 16.4459C45.2982 26.1854 36.5314 35.9247 27.7666 45.6642C26.2831 46.3309 25.1601 47.9607 25.259 49.6788C25.1601 51.3963 26.2831 53.0267 27.7666 53.6928C36.5314 63.4323 45.2982 73.1716 54.0637 82.9122C56.6098 85.7417 60.3701 83.2189 60.539 80.2294C60.582 80.0465 60.6327 79.8678 60.652 79.6686C61.0148 76.159 61.1191 72.6412 61.1513 69.1189H86.1253C87.9913 69.1189 89.158 68.0353 89.6238 66.6778C90.1545 66.0721 90.4989 65.2638 90.4989 64.2296V51.0797V48.2758V35.1266C90.4989 34.0906 90.1545 33.284 89.6249 32.6794C89.1578 31.3228 87.9913 30.2382 86.1253 30.2382ZM82.7804 48.2771V51.0801V61.4005H58.3371C57.9723 61.4005 57.6451 61.4523 57.3331 61.5277C55.3948 61.5169 53.448 62.7599 53.447 65.2598C53.447 67.0591 53.4351 68.8584 53.405 70.6592C47.1121 63.665 40.8186 56.6719 34.524 49.679C40.8175 42.6853 47.1111 35.6924 53.405 28.6989C53.4342 30.4976 53.447 32.2971 53.447 34.0987C53.447 36.598 55.3948 37.8416 57.3331 37.8304C57.6443 37.9063 57.9725 37.958 58.3371 37.958H82.7804V48.2771Z" fill="#FFBF00"/>
</svg>
