<svg width="100" height="100" viewBox="0 0 100 100" fill="none" xmlns="http://www.w3.org/2000/svg">
<path d="M24.2438 42.1118C27.0206 41.7388 29.7975 42.692 31.7661 44.6606L36.7395 49.634L41.4435 44.9508L34.6465 38.1745C33.5897 37.1177 33.5897 35.3977 34.6465 34.3409C35.7034 33.284 37.4233 33.284 38.4802 34.3409L45.2771 41.1378L49.9811 36.4546L44.987 31.4604C43.0184 29.4918 42.0652 26.6943 42.4382 23.9382C43.2671 17.6386 41.257 11.0488 36.4286 6.19975C31.4967 1.2678 24.7412 -0.721554 18.3379 0.231679C17.3225 0.376737 16.9081 1.64081 17.6334 2.36609L24.0366 8.76934C27.0828 11.8155 27.0828 16.7475 24.0366 19.773L20.0993 23.7102C17.0531 26.7564 12.1212 26.7564 9.09571 23.7102L2.67175 17.307C1.94646 16.5817 0.703116 16.9962 0.537336 18.0116C-0.415898 24.4148 1.57346 31.1703 6.50541 36.1023C11.3545 40.9306 17.9442 42.9407 24.2438 42.1118Z" fill="black"/>
<path d="M64.0724 50.5458L59.3684 55.2291L87.3023 83.163C88.3592 84.2199 88.3592 85.9398 87.3023 86.9967C86.2455 88.0535 84.5255 88.0535 83.4687 86.9967L55.5348 59.0628L50.8308 63.7461L79.6143 92.5296C83.2614 96.1767 89.1673 96.156 92.8145 92.5088C96.4617 88.8617 96.4617 82.9558 92.8352 79.3086L64.0724 50.5458Z" fill="black"/>
<path d="M74.8688 31.8956H87.2816L99.6943 7.09082L93.4983 0.894798L68.6728 13.2868V25.6996L34.9366 59.3322L28.8649 53.2812L4.41244 77.7337C-0.68529 82.8314 -0.68529 91.079 4.41244 96.1767C9.51016 101.274 17.7577 101.274 22.8554 96.1767L47.3079 71.7242L41.1119 65.5282L74.8688 31.8956Z" fill="black"/>
</svg>
